<?xml version="1.0" standalone="no"?>
<!DOCTYPE svg PUBLIC "-//W3C//DTD SVG 20010904//EN"
 "http://www.w3.org/TR/2001/REC-SVG-20010904/DTD/svg10.dtd">
<svg version="1.0" xmlns="http://www.w3.org/2000/svg"
 width="482.000000pt" height="482.000000pt" viewBox="0 0 482.000000 482.000000"
 preserveAspectRatio="xMidYMid meet">
<metadata>
Created by potrace 1.14, written by Peter Selinger 2001-2017
</metadata>
<g transform="translate(0.000000,482.000000) scale(0.100000,-0.100000)"
fill="#000000" stroke="none">
<path d="M2150 4754 c-115 -14 -325 -62 -451 -104 -332 -109 -626 -289 -869
-530 -196 -194 -319 -366 -440 -615 -108 -219 -164 -393 -207 -640 -25 -142
-25 -548 0 -690 60 -343 175 -635 351 -897 45 -67 86 -127 91 -136 7 -10 6
-16 -2 -19 -40 -14 -268 -154 -332 -202 -134 -102 -305 -300 -286 -330 3 -6
32 9 66 34 91 67 191 96 354 102 173 6 208 -4 246 -72 47 -85 97 -280 122
-479 6 -55 17 -101 23 -103 6 -2 37 30 69 72 104 136 228 234 408 321 l96 46
113 -50 c187 -83 371 -135 579 -166 144 -22 503 -22 648 0 205 30 422 93 598
174 47 22 92 40 99 40 7 0 62 -25 122 -55 172 -86 285 -177 389 -312 31 -40
61 -72 67 -70 6 2 17 48 23 103 25 199 75 394 122 479 38 68 73 78 246 72 163
-6 263 -35 354 -102 34 -25 63 -40 66 -34 19 30 -152 228 -286 330 -42 32
-132 90 -200 128 -68 39 -130 74 -138 79 -10 6 1 27 48 92 216 302 357 677
402 1069 15 133 6 453 -15 581 -41 238 -99 416 -206 635 -121 249 -244 421
-440 615 -307 306 -707 516 -1150 606 -123 25 -157 27 -390 29 -140 2 -271 1
-290 -1z m430 -166 c76 -34 150 -105 191 -180 32 -60 34 -68 34 -163 0 -90 -3
-106 -28 -158 -58 -117 -166 -195 -300 -217 -181 -29 -356 59 -434 217 -25 52
-28 68 -28 158 0 84 4 107 24 147 46 95 132 171 232 208 79 30 232 24 309 -12z
m-532 -36 c-95 -99 -133 -198 -126 -331 3 -74 9 -98 40 -162 59 -126 162 -214
297 -255 25 -8 56 -14 69 -14 22 0 22 -2 22 -120 l0 -120 -55 0 c-69 0 -230
-23 -358 -52 l-98 -21 -82 43 c-184 96 -318 139 -529 170 -133 20 -423 30
-446 16 -20 -12 -35 -273 -22 -383 29 -233 122 -453 245 -578 l60 -60 2 -140
c1 -142 16 -259 53 -439 11 -54 20 -124 20 -156 l0 -58 -103 -103 c-57 -57
-122 -131 -144 -164 -72 -107 -148 -272 -162 -350 l-6 -39 -74 109 c-414 621
-473 1411 -154 2077 107 222 213 376 383 552 230 238 469 398 771 516 136 53
345 109 443 119 5 1 -16 -25 -46 -57z m887 11 c282 -73 592 -232 814 -417 101
-84 272 -262 344 -358 480 -640 558 -1495 203 -2204 -39 -77 -100 -184 -136
-236 l-64 -97 -14 52 c-17 69 -99 239 -153 318 -23 35 -89 111 -146 168 l-103
103 0 58 c0 32 9 102 20 156 37 180 52 297 53 439 l2 140 60 60 c123 125 216
345 245 578 13 110 -2 371 -22 383 -23 14 -313 4 -446 -16 -211 -31 -345 -74
-529 -170 l-82 -43 -98 21 c-131 30 -289 52 -363 52 l-60 0 0 115 c0 84 3 117
13 119 6 2 35 9 62 15 145 34 255 122 321 256 32 65 38 89 42 159 7 136 -33
242 -130 342 l-50 51 59 -9 c32 -5 103 -20 158 -35z m-1710 -948 c197 -34 386
-102 471 -170 l26 -21 -52 -32 c-28 -18 -54 -32 -56 -32 -21 0 -147 -101 -230
-184 -104 -105 -227 -275 -260 -362 l-17 -45 -35 33 c-94 91 -179 258 -215
426 -15 71 -20 137 -21 247 l-1 150 35 7 c52 10 253 1 355 -17z m2755 10 c19
-12 6 -288 -18 -402 -36 -164 -121 -331 -214 -421 l-35 -33 -17 45 c-33 87
-156 257 -260 362 -83 83 -209 184 -230 184 -2 0 -28 14 -56 32 -59 37 -58 38
37 91 124 70 303 122 498 146 87 11 276 8 295 -4z m-1305 -180 c216 -32 366
-89 538 -201 138 -90 233 -185 326 -325 97 -143 121 -209 128 -349 6 -113 -3
-200 -41 -405 -14 -71 -28 -159 -33 -195 l-8 -65 -40 -5 -40 -6 45 -23 c110
-58 249 -191 335 -321 61 -94 139 -230 133 -235 -2 -3 -45 4 -94 15 -49 10
-150 24 -224 31 -122 11 -141 10 -188 -5 -48 -16 -62 -36 -26 -36 12 0 9 -8
-11 -32 -163 -196 -617 -341 -1065 -341 -448 0 -902 145 -1065 341 -20 24 -23
32 -11 32 36 0 22 20 -26 36 -47 15 -66 16 -188 5 -74 -7 -175 -21 -224 -31
-49 -11 -92 -18 -94 -15 -6 5 72 141 133 235 86 130 225 263 335 321 l45 23
-40 6 -40 5 -8 65 c-5 36 -19 124 -33 195 -53 286 -57 448 -13 574 31 90 161
281 250 367 84 81 243 189 351 238 90 41 233 82 353 100 123 19 415 20 540 1z
m-1410 -2205 c28 -28 43 -50 35 -50 -43 0 -264 42 -292 56 -32 15 -37 14 -132
-20 -54 -20 -102 -36 -107 -36 -4 0 -13 9 -19 20 -9 17 -7 22 17 31 41 16 276
46 368 48 l81 1 49 -50z m2588 35 c137 -17 217 -34 217 -44 0 -4 -6 -15 -13
-25 -11 -16 -19 -14 -112 19 -96 35 -101 36 -133 21 -28 -14 -249 -56 -292
-56 -8 0 7 22 35 50 49 50 50 50 113 50 35 0 118 -7 185 -15z m-2778 -129 c81
-17 294 -46 341 -46 17 0 37 -6 43 -14 17 -20 -23 -46 -70 -46 -74 0 -228
-129 -320 -269 -61 -91 -64 -114 -6 -35 45 61 146 146 256 216 35 22 61 34 58
26 -3 -7 -11 -29 -18 -50 -21 -65 9 -146 51 -133 19 6 30 -3 74 -64 16 -22 48
-50 71 -62 41 -22 44 -22 69 -6 31 21 36 21 36 3 0 -16 -12 -21 -75 -31 -66
-10 -230 -63 -312 -101 -109 -49 -256 -150 -341 -233 -41 -39 -74 -65 -76 -58
-2 6 -12 55 -21 107 -38 207 -113 399 -163 419 -76 30 -243 40 -355 22 l-48
-8 23 24 c26 28 169 126 253 174 114 64 409 189 435 184 14 -2 57 -11 95 -19z
m2947 -47 c90 -38 197 -88 238 -111 91 -50 238 -149 268 -181 l23 -24 -48 8
c-112 18 -279 8 -355 -22 -50 -20 -125 -212 -163 -419 -9 -52 -19 -101 -21
-107 -2 -7 -35 19 -76 58 -85 83 -232 184 -341 233 -82 38 -246 91 -312 101
-63 10 -75 15 -75 31 0 18 5 18 36 -3 25 -16 28 -16 69 6 23 12 55 40 71 62
44 61 55 70 74 64 42 -13 72 68 51 133 -7 21 -15 43 -18 50 -3 8 23 -4 58 -26
110 -70 211 -155 256 -216 58 -79 55 -56 -6 35 -92 140 -246 269 -320 269 -20
0 -47 7 -59 16 -36 25 -12 40 73 47 105 9 285 36 342 52 26 7 53 14 60 14 7 1
86 -31 175 -70z m-2371 -103 c235 -94 400 -120 759 -120 360 0 524 26 760 121
l134 54 44 -44 c44 -44 73 -106 65 -137 -4 -15 -10 -16 -39 -8 -41 11 -49 7
-70 -35 -9 -18 -30 -47 -47 -65 -29 -30 -35 -32 -102 -32 -67 0 -73 -2 -83
-25 -15 -32 -57 -43 -81 -21 -29 26 -44 19 -96 -40 -33 -39 -67 -65 -109 -85
-70 -33 -82 -35 -90 -14 -9 24 -50 17 -90 -14 -21 -17 -61 -37 -89 -47 -29 -9
-61 -25 -73 -35 -26 -24 -42 -24 -68 0 -12 10 -44 26 -73 35 -28 10 -68 30
-89 47 -40 31 -81 38 -90 14 -8 -21 -20 -19 -90 14 -42 20 -76 46 -109 85 -52
59 -67 66 -96 40 -24 -22 -66 -11 -81 21 -10 23 -16 25 -83 25 -67 0 -73 2
-102 33 -17 17 -38 46 -47 64 -21 42 -29 46 -70 35 -29 -8 -35 -7 -39 8 -8 31
21 92 64 136 24 24 44 44 45 44 1 0 62 -24 135 -54z m342 -494 c107 -50 135
-58 158 -44 17 11 29 9 82 -18 l62 -31 -60 6 c-209 21 -357 53 -525 112 -96
34 -102 37 -75 45 17 5 44 13 61 19 20 6 41 6 56 0 23 -9 92 -1 105 12 2 3 20
-12 40 -34 19 -21 63 -51 96 -67z m1015 87 c19 -4 46 -3 60 2 23 9 45 5 116
-21 15 -5 -8 -16 -85 -43 -164 -58 -327 -93 -513 -110 l-49 -5 54 30 c47 25
57 27 77 17 18 -10 30 -10 60 0 82 30 165 77 195 111 18 20 36 35 41 32 4 -3
24 -8 44 -13z"/>
<path d="M2327 4599 c-60 -14 -129 -54 -173 -101 -54 -57 -69 -84 -90 -154
-48 -165 34 -342 194 -421 50 -24 68 -28 147 -28 76 0 99 4 145 26 78 37 131
88 170 161 29 54 35 75 38 148 4 97 -15 165 -68 237 -77 105 -235 162 -363
132z m196 -90 c33 -17 77 -61 77 -76 0 -28 -30 -23 -79 12 -48 35 -60 53 -44
68 9 10 21 9 46 -4z m125 -152 c2 -10 -3 -17 -12 -17 -18 0 -29 16 -21 31 9
14 29 6 33 -14z"/>
<path d="M1705 4387 c-229 -92 -445 -237 -630 -422 -86 -86 -138 -157 -124
-169 2 -2 31 0 64 4 200 25 704 -98 807 -197 33 -32 59 -29 222 23 187 61 226
91 137 106 -60 10 -118 47 -198 125 -81 79 -124 156 -149 270 -22 100 -15 230
16 272 11 16 20 32 20 35 0 15 -44 2 -165 -47z"/>
<path d="M593 3343 c-45 -74 -69 -139 -102 -269 -125 -492 -94 -977 85 -1339
54 -111 126 -218 137 -204 2 2 20 35 41 73 64 119 165 241 284 343 l33 28 -26
85 c-34 111 -53 225 -65 389 l-10 134 -69 106 c-73 113 -141 242 -185 355 -30
74 -66 243 -66 306 0 55 -21 52 -57 -7z"/>
<path d="M2950 4434 c0 -3 9 -19 20 -35 31 -42 38 -172 16 -272 -25 -114 -68
-191 -149 -270 -80 -78 -138 -115 -198 -125 -89 -15 -50 -45 137 -106 163 -52
189 -55 222 -23 103 99 607 222 807 197 33 -4 62 -6 64 -4 14 12 -38 83 -124
169 -184 185 -412 337 -636 425 -119 47 -159 58 -159 44z"/>
<path d="M4170 3350 c0 -67 -37 -234 -70 -316 -43 -110 -126 -265 -193 -365
l-57 -85 -10 -134 c-12 -165 -31 -278 -65 -390 l-26 -85 33 -28 c119 -102 220
-224 284 -343 21 -38 39 -71 41 -73 11 -14 83 93 137 204 67 135 106 264 142
465 25 137 22 429 -5 615 -36 241 -87 418 -154 528 -36 59 -57 62 -57 7z"/>
<path d="M950 3581 l-55 -6 -6 -50 c-8 -68 7 -225 31 -321 22 -87 118 -290
151 -320 21 -18 22 -18 33 0 129 214 270 366 454 490 53 35 53 35 30 50 -60
39 -223 107 -310 130 -104 27 -238 38 -328 27z"/>
<path d="M3656 3580 c-128 -20 -330 -94 -424 -156 -23 -15 -23 -15 30 -50 184
-124 325 -276 454 -490 11 -18 12 -18 31 -2 24 22 96 157 127 240 14 36 32
103 41 149 17 88 22 286 8 299 -13 13 -202 20 -267 10z"/>
<path d="M1379 2099 c-18 -18 -19 -23 -6 -42 13 -20 25 -22 148 -28 185 -8
298 -49 411 -149 51 -44 82 -51 98 -20 14 27 3 47 -59 102 -110 99 -283 158
-463 158 -96 0 -110 -2 -129 -21z"/>
<path d="M3121 2099 c-99 -25 -211 -82 -272 -137 -62 -55 -73 -75 -59 -102 16
-31 47 -24 98 20 113 100 226 141 411 149 123 6 135 8 148 28 13 19 12 24 -6
42 -19 19 -33 21 -133 20 -78 0 -136 -6 -187 -20z"/>
<path d="M2302 2064 c-106 -53 -202 -163 -241 -277 l-20 -57 42 -62 c23 -35
94 -115 159 -179 l117 -117 -25 -23 c-29 -27 -31 -45 -5 -58 14 -8 25 -6 44 9
14 11 30 20 37 20 7 0 23 -9 37 -20 19 -15 30 -17 44 -9 26 13 24 31 -5 58
l-25 23 117 117 c65 64 136 144 159 179 l42 62 -20 57 c-56 164 -216 303 -349
303 -40 0 -71 -7 -108 -26z m186 -64 c94 -48 212 -189 212 -256 0 -9 -22 -44
-49 -78 -56 -70 -225 -236 -241 -236 -16 0 -185 166 -241 236 -27 34 -49 69
-49 78 0 33 45 110 97 167 52 56 154 119 193 119 9 0 44 -14 78 -30z"/>
<path d="M2378 1990 c-75 -22 -184 -127 -213 -205 l-18 -45 29 -37 c37 -51
215 -233 227 -233 31 0 257 242 257 275 -1 61 -88 174 -166 217 -63 33 -83 38
-116 28z m150 -102 c18 -18 14 -38 -7 -38 -22 0 -45 25 -36 40 8 13 28 13 43
-2z"/>
<path d="M905 1099 c-205 -88 -401 -188 -485 -247 l-35 -24 93 5 c112 7 192
-5 233 -33 55 -40 134 -233 159 -393 7 -42 16 -77 19 -77 4 0 17 13 28 29 50
67 295 215 458 276 90 34 90 34 67 59 -11 11 -25 31 -31 44 -6 12 -19 22 -27
22 -9 0 -29 13 -45 29 -21 22 -29 39 -29 66 l0 36 -62 -43 c-35 -24 -108 -88
-162 -143 l-99 -100 7 44 c9 60 89 211 136 260 21 22 76 66 122 98 l83 58
-100 7 c-85 6 -184 27 -245 51 -8 4 -46 -7 -85 -24z"/>
<path d="M3820 1121 c-33 -20 -150 -44 -240 -50 l-95 -6 83 -58 c46 -32 101
-76 122 -98 47 -49 127 -200 136 -260 l7 -44 -99 100 c-54 55 -127 119 -162
143 l-62 43 0 -36 c0 -27 -8 -44 -29 -66 -16 -16 -36 -29 -45 -29 -8 0 -21
-10 -27 -22 -6 -13 -20 -33 -31 -44 -23 -25 -23 -25 67 -59 163 -61 408 -209
458 -276 11 -16 24 -29 28 -29 3 0 12 35 19 78 26 160 105 353 162 393 37 27
122 38 234 32 l89 -5 -35 24 c-86 60 -308 172 -497 252 -71 30 -63 28 -83 17z"/>
<path d="M1800 556 l-65 -12 129 -42 c71 -23 130 -41 133 -39 2 2 -14 16 -35
31 -22 15 -50 38 -62 51 -13 14 -26 24 -29 24 -3 -1 -35 -7 -71 -13z"/>
<path d="M2920 545 c-12 -13 -40 -36 -62 -51 -21 -15 -37 -29 -35 -31 3 -2 62
15 133 39 l129 42 -45 8 c-25 4 -57 9 -71 12 -19 4 -33 -2 -49 -19z"/>
</g>
</svg>
